<svg width="67" height="40" viewBox="0 0 67 40" xmlns="http://www.w3.org/2000/svg" fill="#fff" stroke="#3b4854" fillRule="evenodd" strokeLineCap="round" strokeLineJoin="round">
    <g transform="translate(1,1)">
        <path d="m64 36.167c-2.328 0.592-3.768 0.026-5.06-1.914l-9.188-12.712-1.328-1.76-10.73 14.514c-1.226 1.746-2.512 2.506-4.8 1.888l13.74-18.444-12.792-16.66c2.2-0.428 3.72-0.21 5.07 1.76l9.53 12.87 9.6-12.8c1.23-1.746 2.552-2.41 4.76-1.766l-4.96 6.576-6.72 8.75c-0.8 1-0.69 1.684 0.046 2.65zm-63.984-18.736 1.124-5.528c3.06-10.94 15.6-15.486 24.248-8.726 5.054 3.976 6.31 9.6 6.06 15.9h-28.488c-0.428 11.34 7.734 18.184 18.14 14.692 3.65-1.226 5.8-4.084 6.876-7.66 0.546-1.792 1.45-2.072 3.134-1.56-0.86 4.472-2.8 8.208-6.9 10.546-6.126 3.5-14.87 2.368-19.47-2.496-2.74-2.822-3.872-6.398-4.38-10.222-0.3953842-1.672048-0.3470826-3.437354-0.344-4.946zm2.996-0.76h25.744c-0.168-8.2-5.274-14.024-12.252-14.074-7.66-0.06-13.16 5.626-13.492 14.074z" fill="#3b4854" stroke="none"/>
    </g>
</svg>
