<svg width="360" height="360" viewBox="0 0 360 360" xmlns="http://www.w3.org/2000/svg">
    <g transform="translate(34.345,34.345)">
        <path d="m9.099 0h273.112l-27.311 263.999-100.141 27.311h-18.207l-100.142-27.311z" style="fill:#d99666"/>
        <path d="m145.655 27.302h100.141l-18.207 209.386-81.933 27.311c-1e-3 0-1e-3 -236.697-1e-3 -236.697z" style="fill:#f4b459"/>
        <polygon points="178.228 145.641 174.587 188.975 145.655 198.115 145.655 197.833 107.183 187.664 104.825 163.785 72.698 163.785 77.013 207.647 77.013 209.44 145.655 227.584 203.218 209.44 203.919 209.44 203.937 209.194 204.064 209.176 204.064 207.738 209.272 145.641 209.39 145.641 212.158 118.403 102.94 118.403 100.027 81.806 218.649 81.806 221.516 54.613 63.43 54.613 66.616 81.806 69.53 118.403 69.493 118.403 72.252 145.641" style="fill:#fff"/>
        <polygon points="145.655 118.403 102.94 118.403 100.027 81.806 145.655 81.806 145.655 54.613 63.43 54.613 66.616 81.806 69.53 118.403 69.493 118.403 72.252 145.641 145.655 145.641" style="fill:#e5e5e5"/>
        <polygon points="145.655 198.115 145.655 197.833 107.183 187.664 104.825 163.785 72.698 163.785 77.013 207.647 77.013 209.44 145.655 227.584" style="fill:#e5e5e5"/>
    </g>
</svg>
