<svg width="272" height="272" preserveAspectRatio="xMinYMin meet" viewBox="-4 0 272 272" xmlns="http://www.w3.org/2000/svg">
    <path d="M259.017 162.072c-1.535-4.649-5.556-7.887-10.756-8.664-2.452-.366-5.26-.21-8.583.475-5.792 1.195-10.089 1.65-13.225 1.738 11.837-19.985 21.462-42.775 27.003-64.228 8.96-34.689 4.172-50.492-1.423-57.64-14.807-18.92-36.41-29.084-62.472-29.395-13.903-.17-26.108 2.575-32.475 4.55-5.928-1.047-12.302-1.63-18.99-1.739-12.537-.2-23.614 2.533-33.079 8.15-5.24-1.772-13.65-4.27-23.362-5.864-22.842-3.75-41.252-.828-54.718 8.685C10.631 29.658 3.072 49.67 4.47 77.62c.444 8.874 5.408 35.874 13.224 61.48 4.492 14.718 9.282 26.94 14.237 36.33 7.027 13.315 14.546 21.156 22.987 23.972 4.731 1.576 13.327 2.68 22.368-4.85 1.146 1.388 2.675 2.767 4.704 4.048 2.577 1.625 5.728 2.953 8.875 3.74 11.341 2.835 21.964 2.126 31.027-1.848.056 1.612.1 3.152.135 4.482.06 2.157.12 4.272.2 6.25.536 13.374 1.446 23.773 4.142 31.05.148.4.347 1.01.557 1.656 1.345 4.118 3.594 11.012 9.316 16.411 5.925 5.593 13.092 7.308 19.656 7.308 3.292 0 6.433-.432 9.188-1.022 9.82-2.105 20.973-5.31 29.041-16.799 7.628-10.86 11.336-27.217 12.007-52.99.087-.729.167-1.425.244-2.088l.16-1.362 1.797.158.463.031c10.002.456 22.232-1.665 29.743-5.154 5.935-2.754 24.954-12.795 20.476-26.35" />
    <path d="M241.915 164.708c-29.74 6.135-31.785-3.934-31.785-3.934 31.4-46.593 44.527-105.736 33.2-120.21-30.904-39.486-84.399-20.812-85.292-20.328l-.287.052c-5.876-1.22-12.45-1.946-19.842-2.067-13.456-.22-23.664 3.528-31.41 9.402 0 0-95.43-39.314-90.99 49.444.943 18.882 27.063 142.873 58.217 105.422 11.387-13.695 22.39-25.274 22.39-25.274 5.464 3.63 12.006 5.482 18.864 4.817l.533-.452c-.166 1.7-.09 3.363.213 5.332-8.026 8.967-5.667 10.541-21.71 13.844-16.236 3.346-6.699 9.302-.472 10.86 7.55 1.887 25.013 4.561 36.813-11.958l-.47 1.885c3.144 2.52 5.352 16.383 4.982 28.952-.37 12.568-.617 21.197 1.86 27.937 2.48 6.74 4.948 21.905 26.04 17.386 17.623-3.777 26.756-13.564 28.027-29.89.901-11.606 2.942-9.89 3.07-20.267l1.637-4.912c1.887-15.733.3-20.809 11.157-18.448l2.64.232c7.99.363 18.45-1.286 24.59-4.139 13.217-6.134 21.057-16.377 8.023-13.686h.002" fill="#336791" />
    <path d="M112.085 85.511c-2.68-.373-5.107-.028-6.335.902-.69.523-.904 1.13-.962 1.546-.154 1.105.62 2.327 1.096 2.957 1.346 1.784 3.312 3.01 5.258 3.28.282.04.563.058.842.058 3.245 0 6.196-2.527 6.456-4.392.325-2.336-3.066-3.893-6.355-4.35m88.784.073c-.256-1.83-3.514-2.353-6.606-1.923-3.088.43-6.082 1.824-5.832 3.66.2 1.426 2.777 3.862 5.827 3.862.258 0 .518-.017.78-.054 2.036-.282 3.53-1.575 4.24-2.32 1.08-1.136 1.706-2.402 1.591-3.225" fill="#fff" />
    <path d="M251.811 164.011c-1.134-3.429-4.784-4.532-10.848-3.28-18.005 3.716-24.453 1.142-26.57-.417 13.995-21.32 25.508-47.092 31.72-71.137 2.941-11.39 4.566-21.968 4.7-30.59.146-9.463-1.466-16.417-4.79-20.665-13.402-17.125-33.072-26.31-56.882-26.563-16.369-.184-30.199 4.005-32.88 5.183-5.646-1.404-11.8-2.266-18.502-2.376-12.288-.199-22.91 2.743-31.704 8.74-3.82-1.422-13.692-4.81-25.765-6.756-20.872-3.36-37.458-.814-49.294 7.571-14.123 10.006-20.643 27.892-19.38 53.16.425 8.501 5.27 34.653 12.913 59.698 10.062 32.964 21 51.625 32.508 55.464 1.347.45 2.9.763 4.613.763 4.198 0 9.345-1.892 14.7-8.33a529.832 529.832 0 0120.261-22.926c4.524 2.428 9.494 3.784 14.577 3.92.01.133.023.266.035.398a117.66 117.66 0 00-2.57 3.175c-3.522 4.471-4.255 5.402-15.592 7.736-3.225.666-11.79 2.431-11.916 8.435-.136 6.56 10.125 9.315 11.294 9.607 4.074 1.02 8 1.523 11.742 1.523 9.103 0 17.114-2.992 23.516-8.78-.197 23.385.778 46.43 3.586 53.45 2.3 5.748 7.918 19.795 25.664 19.794 2.604 0 5.47-.303 8.623-.979 18.521-3.97 26.564-12.156 29.675-30.203 1.665-9.645 4.522-32.676 5.866-45.03 2.836.885 6.487 1.29 10.434 1.29 8.232 0 17.731-1.75 23.688-4.515 6.692-3.108 18.768-10.734 16.578-17.36zm-44.106-83.48c-.06 3.647-.563 6.958-1.095 10.414-.573 3.717-1.165 7.56-1.314 12.225-.147 4.54.42 9.26.968 13.825 1.108 9.22 2.245 18.712-2.156 28.078a36.508 36.508 0 01-1.95-4.009c-.547-1.326-1.735-3.456-3.38-6.404-6.399-11.476-21.384-38.35-13.713-49.316 2.285-3.264 8.084-6.62 22.64-4.813zm-17.644-61.787c21.334.471 38.21 8.452 50.158 23.72 9.164 11.711-.927 64.998-30.14 110.97a171.33 171.33 0 00-.886-1.118l-.37-.462c7.55-12.467 6.073-24.802 4.76-35.738-.54-4.488-1.05-8.727-.92-12.709.133-4.22.691-7.84 1.231-11.34.663-4.313 1.338-8.776 1.152-14.037.14-.552.195-1.204.122-1.978-.475-5.045-6.235-20.144-17.975-33.81-6.422-7.475-15.787-15.84-28.574-21.482 5.5-1.14 13.021-2.203 21.442-2.016zM70.683 179.764c-5.9 7.094-9.974 5.734-11.314 5.288-8.73-2.912-18.86-21.364-27.79-50.624-7.729-25.318-12.245-50.777-12.603-57.916-1.128-22.578 4.345-38.313 16.268-46.769 19.404-13.76 51.306-5.524 64.125-1.347-.184.182-.376.352-.558.537-21.036 21.244-20.537 57.54-20.485 59.76-.002.855.07 2.067.168 3.734.362 6.105 1.036 17.467-.764 30.334-1.672 11.957 2.014 23.66 10.111 32.11a36.275 36.275 0 002.617 2.467c-3.604 3.86-11.437 12.396-19.775 22.426zm22.48-29.993c-6.527-6.81-9.49-16.282-8.134-25.99 1.9-13.592 1.2-25.43.822-31.79-.053-.89-.1-1.67-.127-2.285 3.073-2.725 17.314-10.355 27.47-8.028 4.634 1.061 7.458 4.217 8.632 9.645 6.076 28.103.804 39.816-3.432 49.23-.873 1.938-1.698 3.771-2.402 5.667l-.546 1.466c-1.382 3.706-2.668 7.152-3.465 10.424-6.938-.02-13.687-2.984-18.819-8.34zm1.064 37.9c-2.026-.506-3.848-1.385-4.917-2.114.893-.42 2.482-.992 5.238-1.56 13.337-2.745 15.397-4.683 19.895-10.394 1.031-1.31 2.2-2.794 3.82-4.602l.001-.002c2.411-2.7 3.514-2.242 5.514-1.412 1.621.67 3.2 2.702 3.84 4.938.303 1.056.643 3.06-.47 4.62-9.396 13.156-23.088 12.987-32.92 10.526zm69.8 64.952c-16.317 3.496-22.094-4.829-25.9-14.346-2.458-6.144-3.666-33.85-2.809-64.447.011-.407-.047-.8-.159-1.17a15.444 15.444 0 00-.456-2.162c-1.274-4.452-4.379-8.176-8.104-9.72-1.48-.613-4.196-1.738-7.46-.903.696-2.868 1.903-6.107 3.212-9.614l.55-1.475c.617-1.663 1.393-3.386 2.213-5.21 4.433-9.848 10.504-23.337 3.915-53.81-2.468-11.414-10.71-16.988-23.204-15.693-7.49.775-14.343 3.797-17.76 5.53-.736.372-1.408.732-2.036 1.082.954-11.5 4.558-32.992 18.04-46.59 8.49-8.56 19.794-12.788 33.568-12.56 27.14.444 44.544 14.372 54.366 25.98 8.464 10 13.047 20.075 14.876 25.51-13.755-1.4-23.11 1.315-27.852 8.095-10.317 14.748 5.644 43.372 13.315 57.13 1.407 2.52 2.621 4.7 3.003 5.625 2.498 6.054 5.732 10.096 8.093 13.046.724.904 1.426 1.781 1.96 2.547-4.166 1.201-11.649 3.976-10.967 17.847-.55 6.96-4.46 39.546-6.448 51.06-2.623 15.21-8.22 20.874-23.957 24.25zm68.103-77.936c-4.26 1.977-11.389 3.46-18.16 3.78-7.48.35-11.289-.839-12.185-1.57-.42-8.644 2.797-9.547 6.202-10.503.535-.15 1.057-.297 1.561-.473.313.255.656.508 1.032.756 6.012 3.968 16.735 4.396 31.874 1.271l.166-.033c-2.042 1.91-5.536 4.471-10.49 6.772z" fill="#fff" />
</svg>