<svg width="256" height="227.766" preserveAspectRatio="xMinYMin meet" version="1.1" viewBox="0 -13 256 227.766" xmlns="http://www.w3.org/2000/svg">
    <g transform="matrix(1.06723 0 0 1.06723 -8.841015 -21.88379)">
        <path transform="translate(0,-13)" d="m174.3555 27.51562c-11.30724-0.0802-25.8018 7.083766-40.4043 19.79102a151.136 151.136 0 0 0-5.625 5.162109 137.573 137.573 0 0 0-3.74414-3.457031c-20.405-18.118-40.85767-25.75353-53.13867-18.64453-11.776 6.817-15.26364 27.06062-10.30664 52.39062a150.91 150.91 0 0 0 1.669922 7.484376c-2.894 0.822-5.689282 1.696906-8.363282 2.628906-23.922 8.34-39.20117 21.41271-39.20117 34.97071 0 14.004 16.40036 28.0504 41.31836 36.5664a128.44 128.44 0 0 0 6.111328 1.91016 147.813 147.813 0 0 0-1.775391 8.06641c-4.726 24.89-1.036015 44.65273 10.70898 51.42773 12.131 6.995 32.49236-0.19539 52.31836-17.52539 1.567-1.37 3.13984-2.8227 4.71484-4.3457a148.34 148.34 0 0 0 6.10742 5.57421c19.204 16.52501 38.1693 23.1973 49.9043 16.4043 12.12-7.016 16.05931-28.24712 10.94531-54.07812-0.39-1.973-0.84547-3.98707-1.35547-6.03907 1.43-0.422 2.83218-0.8585 4.20118-1.3125 25.904-8.582 42.75781-22.45743 42.75781-36.64843 0-13.607-15.76983-26.76697-40.17383-35.16797a151.364 151.364 0 0 0-7.27344-2.291016 137.5 137.5 0 0 0 1.12305-4.960937c5.506-26.728 1.90533-48.26161-10.38867-55.34961-2.94675-1.6995-6.36178-2.529907-10.13086-2.556641zm-0.49219 9.630859c2.28882-0.03353 4.24874 0.392844 5.80274 1.289063 7.566 4.364 10.50986 21.96011 5.75586 45.03711a127.525 127.525 0 0 1-1.01758 4.492188c-9.374-2.163-19.55294-3.773438-30.21094-4.773438-6.209-8.841-12.64161-16.87989-19.09961-23.83789a141.92 141.92 0 0 1 5.19531-4.765625c13.03281-11.34219 25.39988-17.32166 33.57422-17.44141zm-91.39453 0.214844c8.726907 0.164419 21.93906 6.646094 35.70313 18.86719 1.126 1 2.25762 2.047859 3.39062 3.130859-6.564 7.049-13.05105 15.07431-19.24805 23.82031-10.627 0.984999-20.80034 2.566546-30.15234 4.685546a141.525 141.525 0 0 1-1.552734-6.960937c-4.246457-21.70204-1.426869-38.07376 5.669922-42.18164 1.65375-0.95725 3.745919-1.407365 6.189452-1.361328zm45.85937 28.89648c4.452 4.823001 8.91283 10.20778 13.29883 16.05078a284.245 284.245 0 0 0-26.70703-0.0059c4.39-5.789 8.8862-11.16592 13.4082-16.04492zm-0.10546 25.38672c6.996 0 13.89528 0.267297 20.61328 0.779297a290.704 290.704 0 0 1 10.88672 17.38281 316.418 316.418 0 0 1 9.74023 18.13086 290.806 290.806 0 0 1-9.70898 18.28906 316.478 316.478 0 0 1-10.8418 17.49024c-6.704 0.479-13.63141 0.72656-20.69141 0.72656-7.031 0-13.87003-0.21949-20.45703-0.64648a273.798 273.798 0 0 1-11.04297-17.51758 271.334 271.334 0 0 1-9.640625-18.20508 273.864 273.864 0 0 1 9.611328-18.21484v-2e-3a271.252 271.252 0 0 1 10.95507-17.43941c6.72-0.508 13.61118-0.773438 20.57618-0.773438zm-32.96875 2.007813a283.79 283.79 0 0 0-6.927734 11.38477 285.24 285.24 0 0 0-6.376953 11.68555c-2.811-6.667-5.215688-13.22274-7.179688-19.55274 6.447-1.443 13.32138-2.622578 20.48438-3.517578zm65.95117 0.01953c7.21 0.91 14.11751 2.118609 20.60351 3.599609-1.947 6.240995-4.37442 12.76704-7.23242 19.45704a336.42 336.42 0 0 0-6.5-11.75782 306.982 306.982 0 0 0-6.87109-11.29882zm-95.80664 5.867187c2.828 9.196997 6.535718 18.81311 11.01172 28.53711-4.534 9.869-8.294437 19.63836-11.14844 28.94336a118.908 118.908 0 0 1-5.578125-1.74609c-11.018-3.766-20.11847-8.66-26.35547-14-5.604-4.8-8.433594-9.56464-8.433594-13.43164 0-8.227 12.26756-18.72247 32.72656-25.85547a139.276 139.276 0 0 1 7.777344-2.447265zm125.7676 0.142579c2.311 0.669998 4.55479 1.376088 6.71679 2.121088 20.91 7.197 33.66407 17.83907 33.66407 26.03907 0 8.735-13.77563 20.07532-36.14063 27.48632-1.235 0.409-2.50292 0.8045-3.79492 1.1875-2.86-9.05299-6.71941-18.68-11.44141-28.625 4.507-9.71 8.2161-19.21398 10.9961-28.20898zm-16.49805 39.39453c3.02 6.884 5.56589 13.54395 7.58789 19.87695-6.552 1.49501-13.62513 2.69975-21.07813 3.59376a337.537 337.537 0 0 0 6.9375-11.49805 306.632 306.632 0 0 0 6.55274-11.97266zm-92.70703 0.34766a283.494 283.494 0 0 0 6.404296 11.6914 285.27 285.27 0 0 0 7.095704 11.60547c-7.400001-0.826-14.37922-1.94661-20.82422-3.34961 1.995-6.442 4.453219-13.13726 7.32422-19.94726zm102.9414 28.82812c0.46 1.86 0.87161 3.68185 1.22461 5.46485 2.261 11.422 2.58394 21.74926 1.08594 29.82226-1.346 7.254-4.05244 12.09035-7.39844 14.02735-7.121 4.122-22.34948-1.23714-38.77148-15.36914-1.883-1.62-3.7816-3.34969-5.68359-5.17969 6.36699-6.964 12.7314-15.05883 18.9414-24.04883 10.924-0.969 21.24256-2.5538 30.60156-4.7168zm-112.873 0.43164c9.255 2.047 19.50117 3.52021 30.45117 4.40821 6.251 8.797 12.79848 16.88189 19.39648 23.96289a118.863 118.863 0 0 1-4.30664 3.96484c-8.767 7.664-17.55097 13.09899-25.29297 15.83399h-2e-3c-6.957 2.457-12.4967 2.5267-15.8457 0.5957-7.128001-4.11-10.08983-19.97867-6.048829-41.26367a138.507 138.507 0 0 1 1.648438-7.50196zm69.83203 5.10938c-4.4 5.98-8.84363 11.4474-13.26563 16.31641-4.575-4.93701-9.13675-10.39654-13.59375-16.26954 4.326 0.17 8.73575 0.25586 13.21875 0.25586 4.606 0 9.15963-0.10273 13.64063-0.30273z" style="fill:#53c1de"/>
        <path d="m128.221 94.665c11.144 0 20.177 9.034 20.177 20.177 0 11.144-9.033 20.178-20.177 20.178-11.143 0-20.177-9.034-20.177-20.178 0-11.143 9.034-20.177 20.177-20.177" fill="#53c1de"/>
    </g>
</svg>
