<svg aria-label="Redux" width="26" height="24" viewBox="0 0 26 24" xmlns="http://www.w3.org/2000/svg">
    <title>Redux icon</title>
    <path d="m17.62128 16.47816c0.86811-0.08462 1.533592-0.857053 1.479471-1.770525-0.05612-0.91345-0.813199-1.639121-1.726137-1.629009l-0.061 6.76e-4c-0.942592 0.04144-1.668759 0.842549-1.628295 1.787174 0.0353 0.478646 0.23561 0.866459 0.506737 1.147478-1.025356 2.049516-2.581658 3.564873-4.950553 4.85021-1.593607 0.855718-3.282992 1.190455-4.933373 0.983719-1.380056-0.178728-2.464806-0.782761-3.135704-1.763407-1.004536-1.48799-1.112439-3.103921-0.3074161-4.730964 0.5880117-1.175605 1.476492-2.039514 2.0718-2.466141-0.1542984-0.38732-0.3415853-1.044297-0.4370508-1.537279-4.400513 3.225992-3.901429 7.564804-2.530781 9.602781 1.020524 1.486813 3.083996 2.422032 5.330844 2.397144 0.5989596-0.0066 1.228429-0.05761 1.840727-0.214404 3.887441-0.79212 6.812358-3.161701 8.467076-6.626299zm5.306149-3.805068c-2.351048-2.701171-5.784409-4.161258-9.680146-4.118106l-0.509966 0.00565c-0.259118-0.5511743-0.846901-0.8896905-1.506856-0.8823803l-0.045 4.984e-4c-0.942934 0.010445-1.668913 0.8285495-1.62747 1.771164 0.039944 0.8976273 0.8121992 1.639132 1.726137 1.629009l0.074-8.2e-4c0.674623-0.03747 1.253931-0.463925 1.486281-1.065545l0.554962-0.0061c2.308844-0.025574 4.502162 0.624183 6.509625 1.92005 1.538018 0.987042 2.647542 2.292855 3.278933 3.859984 0.55223 1.281985 0.537177 2.541249-0.0052 3.597339-0.8357 1.656385-2.264967 2.542285-4.166839 2.563352-1.198919 0.01328-2.370994-0.348767-2.973932-0.61111-0.355676 0.301963-0.950152 0.803588-1.381801 1.108392 1.324535 0.583375 2.662266 0.913584 3.950179 0.899318 2.921803-0.03236 5.074415-1.703336 5.881758-3.301403 0.878026-1.807867 0.770515-4.832913-1.551038-7.3994zm-15.4425 4.455389c0.038955 0.898638 0.8111995 1.639142 1.726138 1.629008l0.059996-6.65e-4c0.9586032-0.04062 1.68377-0.841714 1.628307-1.786174-0.01-0.89896-0.79719-1.638299-1.711128-1.628176l-0.060996 6.76e-4c-0.059996 6.65e-4 -0.14899 0.0016-0.2246636 0.03149-1.266153-2.084138-1.816016-4.326223-1.646888-6.753286 0.098745-1.829237 0.681105-3.424812 1.744434-4.754693 0.88649-1.133907 2.573229-1.707634 3.72683-1.749415 3.235106-0.09684 4.628673 3.92004 4.75042 5.521816l1.502873 0.4323881c-0.399404-4.90996-3.482752-7.454008-6.404554-7.421644-2.741815 0.03037047-5.250571 2.051315-6.238138 4.984483-1.349754 3.911256-0.3943366 7.645965 1.346742 10.62391-0.14683 0.196641-0.2330139 0.541623-0.1993716 0.870277z" style="fill:#8900bf;stroke-width:1.00001"/>
</svg>
