<svg role="img" aria-label="Tailwindcss" width="24" height="14.4" viewBox="0 0 24 14.4" xmlns="http://www.w3.org/2000/svg">
    <title>Tailwind CSS icon</title>
    <path d="m12-3.814697e-7c-3.2 0-5.2 1.6-6 4.8 1.2-1.6 2.6-2.2 4.2-1.8 0.913 0.228 1.565 0.89 2.288 1.624 1.177 1.194 2.538 2.576 5.512 2.576 3.2 0 5.2-1.6 6-4.8-1.2 1.6-2.6 2.2-4.2 1.8-0.913-0.228-1.565-0.89-2.288-1.624-1.176-1.194-2.537-2.576-5.512-2.576zm-6 7.2c-3.2 0-5.2 1.6-6 4.8 1.2-1.6 2.6-2.2 4.2-1.8 0.913 0.228 1.565 0.89 2.288 1.624 1.177 1.194 2.538 2.576 5.512 2.576 3.2 0 5.2-1.6 6-4.8-1.2 1.6-2.6 2.2-4.2 1.8-0.913-0.228-1.565-0.89-2.288-1.624-1.176-1.194-2.537-2.576-5.512-2.576z" style="fill:#06b6d4"/>
</svg>
